# xmcd
#
# Track frame offsets:
#	150
#	18800
#	35903
#	61705
#	82485
#	99353
#	114531
#	143229
#	162627
#	187958
#	209252
#	231029
#	255926
#	280603
#	307605
#	327710
#
# Disc length: 4743 seconds
#
# Revision: 0
# Processed by: cddbd v1.4PL0 Copyright (c) Steve Scherf et al.
# Submitted via: dBpowerAMP V4.0
#
DISCID=d7128510
DTITLE=Robben Ford and The Blue Line - Talk To Your Daughter
DYEAR=1900
DGENRE=Blues
TTITLE0=Talk To Your Daughter
TTITLE1=Wild About You
TTITLE2=Help The Poor
TTITLE3=Aint Got Nothin' But The Blues
TTITLE4=Born Under A Bad Sign
TTITLE5=I Got Over It
TTITLE6=Revelation
TTITLE7=Getaway
TTITLE8=Can't Let Her Go
TTITLE9=The Brother
TTITLE10=You Cut Me To The Bone
TTITLE11=I'm A Real Man
TTITLE12=My Love Will Never Die
TTITLE13=Step On It
TTITLE14=Prison Of Love
TTITLE15=Tell Me I'm Your Man
EXTD=Good Blues Album,,,,,,,,Brian Young
EXTT0=
EXTT1=
EXTT2=
EXTT3=
EXTT4=
EXTT5=
EXTT6=
EXTT7=
EXTT8=
EXTT9=
EXTT10=
EXTT11=
EXTT12=
EXTT13=
EXTT14=
EXTT15=
PLAYORDER=
